<?xml version="1.0" standalone="no"?><!DOCTYPE svg PUBLIC "-//W3C//DTD SVG 1.1//EN" "http://www.w3.org/Graphics/SVG/1.1/DTD/svg11.dtd"><svg t="1628649305118" class="icon" viewBox="0 0 1024 1024" version="1.1" xmlns="http://www.w3.org/2000/svg" p-id="1976" xmlns:xlink="http://www.w3.org/1999/xlink" width="200" height="200"><defs><style type="text/css"></style></defs><path d="M928 644.16c0-123.2-117.44-224-262.72-224s-262.4 99.84-262.4 224 117.44 224 262.4 224a300.48 300.48 0 0 0 119.04-24 486.08 486.08 0 0 1 93.44 46.72 820.48 820.48 0 0 1-26.56-88 207.68 207.68 0 0 0 76.8-158.72zM569.6 608a35.52 35.52 0 1 1 35.2-35.52A35.2 35.2 0 0 1 569.6 608z m183.36 0a35.52 35.52 0 1 1 34.88-32 35.2 35.2 0 0 1-34.88 33.92z" p-id="1977"></path><path d="M667.52 396.8a363.2 363.2 0 0 1 46.08 3.2c-9.6-137.28-143.68-246.08-308.48-246.08C234.24 153.92 96 270.72 96 416a244.8 244.8 0 0 0 98.56 192 837.76 837.76 0 0 1-27.84 93.12 478.08 478.08 0 0 1 101.44-50.24 348.16 348.16 0 0 0 110.72 25.92 199.68 199.68 0 0 1-2.24-32c0-137.28 130.24-248 290.88-248z m-139.84-118.4a40.32 40.32 0 1 1-40 41.6 40 40 0 0 1 40-41.6z m-234.24 80.64A40.32 40.32 0 1 1 333.44 320a40 40 0 0 1-40 39.04z" p-id="1978"></path></svg>